HIERARCHY
ROOT Hips
{
 OFFSET 0.000000 0.000000 0.000000
 CHANNELS 6 Xposition Yposition Zposition Yrotation Xrotation Zrotation
 JOINT Chest
 {
  OFFSET 0.000000 9.585900 0.002600
  CHANNELS 3 Yrotation Xrotation Zrotation
  JOINT Chest2
  {
   OFFSET 0.000000 9.601200 -0.005300
   CHANNELS 3 Yrotation Xrotation Zrotation
   JOINT Chest3
   {
    OFFSET 0.000000 9.561800 0.000000
    CHANNELS 3 Yrotation Xrotation Zrotation
    JOINT Chest4
    {
     OFFSET 0.000000 9.552100 0.000000
     CHANNELS 3 Yrotation Xrotation Zrotation
     JOINT Neck
     {
      OFFSET 0.000000 14.453000 0.000000
      CHANNELS 3 Yrotation Xrotation Zrotation
      JOINT Head
      {
       OFFSET 0.000000 8.936500 -0.011300
       CHANNELS 3 Yrotation Xrotation Zrotation
       End Site
       {
        OFFSET 0.000000 17.073600 -0.006000
       }
      }
     }
     JOINT RightCollar
     {
      OFFSET -2.921100 9.558500 0.000000
      CHANNELS 3 Yrotation Xrotation Zrotation
      JOINT RightShoulder
      {
       OFFSET -13.519700 0.000000 0.000000
       CHANNELS 3 Yrotation Xrotation Zrotation
       JOINT RightElbow
       {
        OFFSET 0.000000 -29.696600 0.000000
        CHANNELS 3 Yrotation Xrotation Zrotation
        JOINT RightWrist
        {
         OFFSET 0.000000 -24.004700 0.000000
         CHANNELS 3 Yrotation Xrotation Zrotation
         End Site
         {
          OFFSET 0.000000 -17.728500 0.000000
         }
        }
       }
      }
     }
     JOINT LeftCollar
     {
      OFFSET 2.921100 9.558500 0.000000
      CHANNELS 3 Yrotation Xrotation Zrotation
      JOINT LeftShoulder
      {
       OFFSET 13.519700 0.000000 0.000000
       CHANNELS 3 Yrotation Xrotation Zrotation
       JOINT LeftElbow
       {
        OFFSET 0.000000 -29.696600 0.000000
        CHANNELS 3 Yrotation Xrotation Zrotation
        JOINT LeftWrist
        {
         OFFSET 0.000000 -24.004700 0.000000
         CHANNELS 3 Yrotation Xrotation Zrotation
         End Site
         {
          OFFSET 0.000000 -17.728500 0.000000
         }
        }
       }
      }
     }
    }
   }
  }
 }
 JOINT RightHip
 {
  OFFSET -7.771700 -0.012900 -0.001300
  CHANNELS 3 Yrotation Xrotation Zrotation
  JOINT RightKnee
  {
   OFFSET 0.000000 -40.869800 0.001200
   CHANNELS 3 Yrotation Xrotation Zrotation
   JOINT RightAnkle
   {
    OFFSET 0.000000 -39.717900 0.002100
    CHANNELS 3 Yrotation Xrotation Zrotation
    JOINT RightToe
    {
     OFFSET 0.000000 -4.965400 11.033500
     CHANNELS 3 Yrotation Xrotation Zrotation
     End Site
     {
      OFFSET 0.000000 -1.423100 5.872300
     }
    }
   }
  }
 }
 JOINT LeftHip
 {
  OFFSET 7.771700 -0.012900 -0.001300
  CHANNELS 3 Yrotation Xrotation Zrotation
  JOINT LeftKnee
  {
   OFFSET 0.000000 -40.869800 0.001200
   CHANNELS 3 Yrotation Xrotation Zrotation
   JOINT LeftAnkle
   {
    OFFSET 0.000000 -39.717900 0.002100
    CHANNELS 3 Yrotation Xrotation Zrotation
    JOINT LeftToe
    {
     OFFSET 0.000000 -4.965400 11.033500
     CHANNELS 3 Yrotation Xrotation Zrotation
     End Site
     {
      OFFSET 0.000000 -1.423100 5.872300
     }
    }
   }
  }
 }
}
MOTION
Frames: 7
Frame Time: 0.008333
-65.033039 57.741686 11.616966 178.373760 -49.966212 -3.491092 3.299697 22.242453 2.931404 1.726910 12.747673 1.474965 2.208642 15.896963 1.951907 1.716079 12.731461 1.492876 0.314127 13.590477 1.539391 -0.030963 -10.572842 2.832291 2.461572 3.218978 0.217379 -3.428490 -15.824625 -8.339787 -33.114878 -30.307772 94.207419 -6.841397 -3.405338 -29.447975 -10.623334 0.329814 -0.460854 2.962945 -14.913985 10.385200 43.967748 -40.572155 -98.130267 12.512713 -8.145795 5.871982 7.011243 -21.223501 -1.967629 -34.330172 74.250236 -38.832464 7.040284 -16.175606 13.740007 0.004020 0.000155 0.007915 -7.695997 -19.258317 5.347530 89.155546 80.820568 88.543455 0.901685 -21.514138 -18.704933 0.008878 0.007979 0.007793
-65.028044 57.743435 11.616656 178.356932 -49.957786 -3.475849 3.318931 22.248447 2.918086 1.737741 12.748656 1.467038 2.258931 15.925769 1.888111 1.743666 12.734505 1.473977 0.417915 13.471109 1.696257 0.116581 -10.770397 3.039875 2.451088 3.270003 0.303317 -3.516124 -15.771615 -8.318987 -33.401475 -30.637396 94.508570 -6.709428 -3.253709 -29.420549 -10.445440 0.371022 -0.273893 3.206508 -15.095447 10.071848 45.480104 -40.740991 -99.732031 11.958596 -7.690329 4.887088 7.035095 -21.232593 -1.966652 -34.355445 74.247920 -38.852725 7.041384 -16.181634 13.742078 -0.002449 0.002756 0.008053 -7.712587 -19.255168 5.343344 89.133328 80.819392 88.506777 0.918340 -21.521009 -18.719535 0.005867 0.012588 0.006931
-65.021796 57.743775 11.617704 178.328813 -49.935122 -3.456447 3.393136 22.272770 2.877675 1.718704 12.711756 1.507049 2.313578 15.933168 1.835521 1.770968 12.733004 1.457908 0.524742 13.373873 1.842565 0.258172 -10.951095 3.275482 2.454042 3.351990 0.368877 -3.618816 -15.701235 -8.293561 -33.708109 -30.995579 94.802420 -6.570404 -3.106589 -29.389464 -10.255028 0.420157 -0.116789 3.488817 -15.355935 9.772497 46.922135 -41.042886 -101.556266 11.565733 -7.324667 4.046421 7.075321 -21.260612 -1.958193 -34.412534 74.242873 -38.895989 7.029487 -16.180370 13.746451 -0.000686 0.003278 0.008484 -7.714924 -19.270502 5.345761 89.064645 80.825532 88.445595 0.935231 -21.516752 -18.745074 0.011121 0.012912 0.008122
-65.016738 57.743807 11.618842 178.301301 -49.908037 -3.427488 3.446331 22.259607 2.849453 1.738794 12.718915 1.492184 2.364409 15.912408 1.813218 1.803036 12.726766 1.442356 0.630618 13.286853 2.004094 0.391838 -11.112627 3.540151 2.454944 3.453914 0.435400 -3.730979 -15.609149 -8.263650 -34.019809 -31.382011 95.084026 -6.438521 -2.978132 -29.355573 -10.067323 0.480680 0.041435 3.798638 -15.703555 9.481242 48.258957 -41.388317 -103.483109 11.279335 -7.025310 3.261272 7.100536 -21.289613 -1.964137 -34.369548 74.255942 -38.856550 6.983192 -16.189106 13.746715 0.003973 0.011152 0.014010 -7.704717 -19.296270 5.340443 89.015087 80.821232 88.401344 0.936881 -21.510122 -18.755924 0.005064 0.012413 0.005381
-65.011179 57.742088 11.621398 178.259843 -49.866228 -3.388578 3.516692 22.222930 2.824935 1.819883 12.715869 1.440714 2.380488 15.886165 1.847213 1.839660 12.715130 1.429045 0.734915 13.211064 2.179104 0.517169 -11.253048 3.830728 2.448162 3.569360 0.499028 -3.851223 -15.488405 -8.232582 -34.324314 -31.788386 95.350831 -6.318721 -2.865893 -29.321006 -9.886974 0.560243 0.204660 4.106893 -16.135121 9.189542 49.501690 -41.632787 -105.366965 10.971546 -6.724606 2.411628 7.134417 -21.335055 -1.972748 -34.347252 74.267455 -38.835285 6.962072 -16.195647 13.749314 -0.012442 0.011460 0.009325 -7.687186 -19.337790 5.338280 88.969476 80.813708 88.361144 0.938165 -21.503714 -18.766212 0.005135 0.012697 0.002028
-65.004884 57.741574 11.622796 178.232605 -49.832803 -3.362566 3.570044 22.189902 2.808135 1.893470 12.696641 1.413508 2.414352 15.865250 1.852312 1.878772 12.698763 1.418868 0.837990 13.148434 2.363942 0.636375 -11.368887 4.140291 2.438658 3.686689 0.555527 -3.983363 -15.331353 -8.202937 -34.621743 -32.211606 95.607807 -6.218088 -2.761814 -29.294714 -9.713995 0.654673 0.362852 4.396322 -16.642759 8.903023 50.670387 -41.748300 -107.179340 10.606580 -6.397668 1.480761 7.160536 -21.372616 -1.974116 -34.366236 74.270973 -38.852811 6.974622 -16.212277 13.742888 -0.009133 0.015185 0.010324 -7.686648 -19.369229 5.336475 88.946169 80.804584 88.331101 0.944068 -21.499527 -18.773086 0.004693 0.012360 -0.000450
-64.999277 57.741676 11.623279 178.220905 -49.804344 -3.342326 3.637355 22.150082 2.797942 1.931937 12.676661 1.405879 2.462291 15.840186 1.843904 1.917284 12.678781 1.411251 0.939452 13.102340 2.554942 0.750366 -11.453986 4.462038 2.436364 3.796468 0.604365 -4.135968 -15.133733 -8.175573 -34.910155 -32.649616 95.860616 -6.147163 -2.664936 -29.288234 -9.550911 0.752258 0.503063 4.674814 -17.215421 8.630403 51.784624 -41.797966 -108.980662 10.228644 -6.039719 0.532786 7.174274 -21.403822 -1.978503 -34.386353 74.273553 -38.874796 6.970111 -16.230083 13.741179 -0.024288 0.023314 0.007887 -7.695924 -19.398841 5.327328 88.936140 80.794239 88.312729 0.949909 -21.492125 -18.780410 -0.000180 0.012067 -0.003321
